<svg width="114" height="114" viewBox="0 0 114 114" fill="none" xmlns="http://www.w3.org/2000/svg">
<path opacity="0.8" fill-rule="evenodd" clip-rule="evenodd" d="M56.5685 2.82849L2.82843 56.5686L56.5685 110.309L110.309 56.5686L56.5685 2.82849ZM0 56.5686L56.5685 113.137L113.137 56.5686L56.5685 6.19888e-05L0 56.5686Z" fill="#B9B9B9"/>
<path fill-rule="evenodd" clip-rule="evenodd" d="M59.6863 42.7157L72.4142 55.4436C73.1953 56.2246 73.1953 57.491 72.4142 58.272L59.6863 70.9999C58.9052 71.781 57.6389 71.781 56.8579 70.9999C56.0768 70.2189 56.0768 68.9526 56.8579 68.1715L66.1716 58.8578H43C41.8954 58.8578 41 57.9624 41 56.8578C41 55.7532 41.8954 54.8578 43 54.8578H66.1716L56.8579 45.5441C56.0768 44.763 56.0768 43.4967 56.8579 42.7157C57.6389 41.9346 58.9052 41.9346 59.6863 42.7157Z" fill="#3A4454"/>
</svg>
