<svg width="171" height="171" viewBox="0 0 171 171" fill="none" xmlns="http://www.w3.org/2000/svg">
<path opacity="0.8" fill-rule="evenodd" clip-rule="evenodd" d="M85.2844 166.179L165.895 85.5684L85.2844 4.95819L4.67422 85.5684L85.2844 166.179ZM170.137 85.5684L85.2844 0.715547L0.431582 85.5684L85.2844 170.421L170.137 85.5684Z" fill="#B9B9B9"/>
<path fill-rule="evenodd" clip-rule="evenodd" d="M80.0508 109.026L58.9702 87.8526C57.6766 86.5533 57.6766 84.4467 58.9702 83.1474L80.0508 61.9745C81.3444 60.6752 83.4418 60.6752 84.7354 61.9745C86.029 63.2737 86.029 65.3803 84.7354 66.6796L69.3096 82.173H107.688C109.517 82.173 111 83.6625 111 85.5C111 87.3375 109.517 88.827 107.688 88.827H69.3096L84.7354 104.32C86.029 105.62 86.029 107.726 84.7354 109.026C83.4418 110.325 81.3444 110.325 80.0508 109.026Z" fill="#3A4454"/>
</svg>
