<svg width="85" height="87" viewBox="0 0 85 87" fill="none" xmlns="http://www.w3.org/2000/svg">
<rect y="43.4265" width="60" height="60" transform="rotate(-45 0 43.4265)" fill="#F1F1E6" fill-opacity="0.9"/>
<rect x="1.41421" y="43.4265" width="58" height="58" transform="rotate(-45 1.41421 43.4265)" stroke="#090909" stroke-opacity="0.5" stroke-width="2"/>
<path d="M55.4038 56.8861L46.5858 47.913ZM49.5251 40.4354C49.5251 46.2171 44.9192 50.904 39.2374 50.904C33.5557 50.904 28.9497 46.2171 28.9497 40.4354C28.9497 34.6538 33.5557 29.9668 39.2374 29.9668C44.9192 29.9668 49.5251 34.6538 49.5251 40.4354Z" fill="#F1F1E6" fill-opacity="0.9"/>
<path d="M39.2374 35.9488V40.4354ZM39.2374 40.4354V44.9219ZM39.2374 40.4354H43.6464ZM39.2374 40.4354H34.8283Z" fill="#F1F1E6" fill-opacity="0.9"/>
<path d="M55.4038 56.8861L46.5858 47.913M39.2374 35.9488V40.4354M39.2374 40.4354V44.9219M39.2374 40.4354H43.6464M39.2374 40.4354H34.8283M49.5251 40.4354C49.5251 46.2171 44.9192 50.904 39.2374 50.904C33.5557 50.904 28.9497 46.2171 28.9497 40.4354C28.9497 34.6538 33.5557 29.9668 39.2374 29.9668C44.9192 29.9668 49.5251 34.6538 49.5251 40.4354Z" stroke="#3A4454" stroke-width="2" stroke-linecap="round" stroke-linejoin="round"/>
</svg>
